<?xml version="1.0" encoding="UTF-8"?>
<svg id="Layer_2" data-name="Layer 2" xmlns="http://www.w3.org/2000/svg" width="135" height="135" viewBox="0 0 135 135">
  <g id="Graphic_Elements" data-name="Graphic Elements">
    <g>
      <circle cx="67.5" cy="67.5" r="67.5" style="fill: #010201;"/>
      <g>
        <path d="M67.5,32.658c11.348,0,12.692,.043,17.174,.248,4.144,.189,6.394,.881,7.892,1.463,1.984,.771,3.399,1.692,4.887,3.179,1.487,1.487,2.408,2.903,3.179,4.887,.582,1.498,1.274,3.748,1.463,7.892,.204,4.482,.248,5.826,.248,17.174s-.043,12.692-.248,17.174c-.189,4.144-.881,6.394-1.463,7.892-.771,1.984-1.692,3.4-3.179,4.887-1.487,1.487-2.903,2.408-4.887,3.179-1.498,.582-3.748,1.274-7.892,1.463-4.481,.204-5.825,.248-17.174,.248s-12.693-.043-17.174-.248c-4.144-.189-6.394-.881-7.892-1.463-1.984-.771-3.399-1.692-4.887-3.179-1.487-1.487-2.408-2.903-3.179-4.887-.582-1.498-1.274-3.748-1.463-7.892-.204-4.482-.248-5.826-.248-17.174s.043-12.692,.248-17.174c.189-4.144,.881-6.394,1.463-7.892,.771-1.984,1.692-3.4,3.179-4.887,1.487-1.487,2.903-2.408,4.887-3.179,1.498-.582,3.748-1.274,7.892-1.463,4.482-.204,5.826-.248,17.174-.248m0-7.658c-11.542,0-12.99,.049-17.523,.256-4.524,.206-7.613,.925-10.316,1.975-2.795,1.086-5.165,2.539-7.528,4.902-2.363,2.363-3.816,4.733-4.902,7.528-1.051,2.703-1.769,5.793-1.975,10.316-.207,4.533-.256,5.98-.256,17.523s.049,12.99,.256,17.523c.206,4.524,.925,7.613,1.975,10.316,1.086,2.795,2.539,5.165,4.902,7.528,2.363,2.363,4.733,3.816,7.528,4.902,2.703,1.051,5.793,1.769,10.316,1.975,4.533,.207,5.98,.256,17.523,.256s12.99-.049,17.523-.256c4.524-.206,7.613-.925,10.316-1.975,2.795-1.086,5.165-2.539,7.528-4.902,2.363-2.363,3.816-4.733,4.902-7.528,1.051-2.703,1.769-5.793,1.975-10.316,.207-4.533,.256-5.98,.256-17.523s-.049-12.99-.256-17.523c-.206-4.524-.925-7.613-1.975-10.316-1.086-2.795-2.539-5.165-4.902-7.528-2.363-2.363-4.733-3.816-7.528-4.902-2.703-1.051-5.793-1.769-10.316-1.975-4.533-.207-5.98-.256-17.523-.256h0Z" style="fill: #fff;"/>
        <path d="M67.5,45.676c-12.053,0-21.824,9.771-21.824,21.824s9.771,21.824,21.824,21.824,21.824-9.771,21.824-21.824-9.771-21.824-21.824-21.824Zm0,35.991c-7.824,0-14.167-6.343-14.167-14.167s6.343-14.167,14.167-14.167,14.167,6.343,14.167,14.167-6.343,14.167-14.167,14.167Z" style="fill: #fff;"/>
        <circle cx="90.187" cy="44.813" r="5.1" style="fill: #fff;"/>
      </g>
    </g>
  </g>
</svg>