<?xml version="1.0" encoding="UTF-8"?>
<svg id="Layer_2" data-name="Layer 2" xmlns="http://www.w3.org/2000/svg" width="135" height="135" viewBox="0 0 135 135">
  <g id="Graphic_Elements" data-name="Graphic Elements">
    <g>
      <circle cx="67.5" cy="67.5" r="67.5" style="fill: #010201;"/>
      <g>
        <path d="M72.723,58.291c1.108-1.246,2.022-2.51,3.161-3.583,3.5-3.299,7.641-4.963,12.475-4.922,2.656,.023,5.283,.214,7.844,.955,5.859,1.694,9.264,5.727,10.887,11.45,1.218,4.292,1.442,8.699,1.45,13.119,.016,9.324-.027,18.649-.007,27.973,.002,.873-.243,1.102-1.102,1.095-4.803-.04-9.608-.041-14.411,.001-.845,.007-1.028-.255-1.025-1.053,.027-8.872,.034-17.745,.005-26.617-.007-2.224-.149-4.445-.773-6.608-1.149-3.982-4-6.011-8.172-5.791-5.696,.301-8.658,3.121-9.385,8.914-.173,1.383-.255,2.767-.254,4.161,.007,8.629-.009,17.258,.023,25.886,.003,.861-.213,1.114-1.091,1.106-4.838-.043-9.677-.038-14.516-.003-.776,.006-1-.204-.999-.988,.021-17.084,.022-34.168,0-51.251-.001-.845,.276-1.041,1.075-1.035,4.595,.034,9.19,.038,13.785-.003,.845-.007,1.064,.266,1.045,1.067-.047,2.041-.016,4.084-.016,6.126Z" style="fill: #fefefe;"/>
        <path d="M46.403,77.815c0,8.452-.014,16.903,.02,25.355,.004,.939-.23,1.223-1.202,1.213-4.801-.053-9.604-.041-14.406-.007-.77,.005-1.002-.187-1-.983,.023-17.112,.021-34.224,.004-51.335,0-.708,.171-.961,.923-.956,4.871,.031,9.743,.041,14.614-.006,.936-.009,1.063,.354,1.061,1.156-.023,8.521-.014,17.042-.014,25.563Z" style="fill: #fefefe;"/>
        <path d="M47.727,34.144c.005,5.306-4.302,9.629-9.596,9.631-5.226,.002-9.57-4.325-9.587-9.548-.017-5.282,4.323-9.631,9.607-9.625,5.246,.005,9.57,4.314,9.575,9.543Z" style="fill: #fefefe;"/>
      </g>
    </g>
  </g>
</svg>