<?xml version="1.0" encoding="UTF-8"?>
<svg id="Layer_2" data-name="Layer 2" xmlns="http://www.w3.org/2000/svg" width="135" height="135" viewBox="0 0 135 135">
  <g id="Graphic_Elements" data-name="Graphic Elements">
    <g>
      <circle cx="67.5" cy="67.5" r="67.5" style="fill: #010201;"/>
      <g id="WA_Logo" data-name="WA Logo">
        <path d="M99.97,35.861c-8.084-8.091-18.836-12.549-30.291-12.554-23.602,0-42.811,19.202-42.82,42.804-.003,7.544,1.969,14.909,5.716,21.4l-6.075,22.182,22.7-5.953c6.254,3.41,13.296,5.207,20.463,5.21h.018s-.001,0,0,0c23.599,0,42.81-19.204,42.82-42.806,.004-11.438-4.445-22.193-12.53-30.284Zm-30.29,65.861h-.015c-6.386-.002-12.65-1.717-18.114-4.959l-1.3-.771-13.47,3.532,3.595-13.129-.846-1.346c-3.563-5.665-5.444-12.212-5.441-18.935,.008-19.617,15.974-35.577,35.605-35.577,9.506,.004,18.442,3.709,25.162,10.434,6.719,6.725,10.418,15.664,10.414,25.171-.008,19.618-15.974,35.579-35.59,35.579Zm19.522-26.647c-1.07-.535-6.33-3.123-7.311-3.48-.981-.357-1.694-.535-2.407,.535-.713,1.071-2.764,3.48-3.388,4.194-.624,.714-1.248,.803-2.318,.268-1.07-.535-4.517-1.665-8.604-5.309-3.18-2.836-5.328-6.339-5.952-7.41-.624-1.071-.066-1.65,.469-2.183,.481-.479,1.07-1.249,1.605-1.874,.535-.625,.713-1.071,1.07-1.784,.357-.714,.178-1.339-.089-1.874-.267-.535-2.407-5.8-3.299-7.941-.868-2.086-1.75-1.803-2.407-1.836-.623-.031-1.337-.038-2.051-.038s-1.872,.268-2.853,1.338c-.981,1.071-3.745,3.658-3.745,8.923s3.834,10.351,4.369,11.065c.535,.714,7.544,11.517,18.277,16.15,2.553,1.102,4.546,1.76,6.099,2.253,2.563,.814,4.896,.699,6.739,.424,2.056-.307,6.33-2.588,7.222-5.086,.891-2.498,.891-4.64,.624-5.086-.267-.446-.981-.714-2.05-1.249Z" style="fill: #fff; fill-rule: evenodd;"/>
      </g>
    </g>
  </g>
</svg>