<?xml version="1.0" encoding="UTF-8"?>
<svg id="Layer_2" data-name="Layer 2" xmlns="http://www.w3.org/2000/svg" width="135" height="135" viewBox="0 0 135 135">
  <g id="Graphic_Elements" data-name="Graphic Elements">
    <g>
      <circle cx="67.5" cy="67.5" r="67.5" style="fill: #010201;"/>
      <path d="M53.861,106.375c32.968,0,50.997-27.313,50.997-50.997,0-.776-.016-1.549-.051-2.317,3.499-2.53,6.542-5.686,8.942-9.28-3.212,1.427-6.668,2.388-10.293,2.822,3.7-2.218,6.542-5.73,7.881-9.915-3.464,2.053-7.298,3.546-11.381,4.351-3.271-3.484-7.929-5.663-13.083-5.663-9.899,0-17.926,8.027-17.926,17.922,0,1.407,.158,2.775,.465,4.087-14.896-.749-28.105-7.881-36.944-18.726-1.541,2.648-2.427,5.726-2.427,9.008,0,6.218,3.164,11.708,7.976,14.919-2.94-.09-5.702-.898-8.118-2.242-.004,.075-.004,.15-.004,.229,0,8.681,6.179,15.928,14.38,17.572-1.505,.41-3.09,.63-4.725,.63-1.155,0-2.278-.114-3.369-.323,2.282,7.121,8.898,12.303,16.744,12.449-6.136,4.808-13.863,7.672-22.261,7.672-1.446,0-2.873-.083-4.276-.248,7.933,5.084,17.351,8.051,27.475,8.051" style="fill: #fff;"/>
    </g>
  </g>
</svg>