<svg xmlns="http://www.w3.org/2000/svg" width="55" height="54" viewBox="0 0 55 54"><defs><style>.a{fill:#4fc1f3;}.b{fill:#fff;}</style></defs><g transform="translate(0.492)"><ellipse class="a" cx="27.5" cy="27" rx="27.5" ry="27" transform="translate(-0.492)"/><g transform="translate(10.048 10.048)"><path class="b" d="M42.081,28.078c4.561,0,5.1.017,6.9.1a9.453,9.453,0,0,1,3.172.588A5.655,5.655,0,0,1,55.4,32.007a9.453,9.453,0,0,1,.588,3.172c.082,1.8.1,2.342.1,6.9s-.017,5.1-.1,6.9a9.453,9.453,0,0,1-.588,3.172A5.655,5.655,0,0,1,52.155,55.4a9.453,9.453,0,0,1-3.172.588c-1.8.082-2.341.1-6.9.1s-5.1-.017-6.9-.1a9.453,9.453,0,0,1-3.172-.588,5.655,5.655,0,0,1-3.242-3.242,9.453,9.453,0,0,1-.588-3.172c-.082-1.8-.1-2.342-.1-6.9s.017-5.1.1-6.9a9.453,9.453,0,0,1,.588-3.172,5.655,5.655,0,0,1,3.242-3.242,9.453,9.453,0,0,1,3.172-.588c1.8-.082,2.342-.1,6.9-.1m0-3.078c-4.639,0-5.221.02-7.043.1a12.537,12.537,0,0,0-4.146.794,8.734,8.734,0,0,0-5,5,12.529,12.529,0,0,0-.794,4.146c-.083,1.822-.1,2.4-.1,7.043s.02,5.221.1,7.043A12.537,12.537,0,0,0,25.9,53.27a8.734,8.734,0,0,0,5,5,12.529,12.529,0,0,0,4.146.794c1.822.083,2.4.1,7.043.1s5.221-.02,7.043-.1a12.537,12.537,0,0,0,4.146-.794,8.734,8.734,0,0,0,5-5,12.529,12.529,0,0,0,.794-4.146c.083-1.822.1-2.4.1-7.043s-.02-5.221-.1-7.043a12.537,12.537,0,0,0-.794-4.146,8.734,8.734,0,0,0-5-5,12.529,12.529,0,0,0-4.146-.794c-1.822-.083-2.4-.1-7.043-.1Z" transform="translate(-25 -25)"/><path class="b" d="M54.447,45.676a8.771,8.771,0,1,0,8.771,8.771,8.771,8.771,0,0,0-8.771-8.771Zm0,14.465a5.694,5.694,0,1,1,5.694-5.694A5.694,5.694,0,0,1,54.447,60.141Z" transform="translate(-37.366 -37.366)"/><circle class="b" cx="2.05" cy="2.05" r="2.05" transform="translate(24.149 5.913)"/></g></g></svg>