<svg xmlns="http://www.w3.org/2000/svg" width="54" height="54" viewBox="0 0 54 54"><defs><style>.a{fill:#4fc1f3;}.b{fill:#fefefe;}</style></defs><circle class="a" cx="27" cy="27" r="27"/><g transform="translate(11.472 9.888)"><path class="b" d="M63.219,53.2c.445-.5.813-1.009,1.27-1.44A6.97,6.97,0,0,1,69.5,49.786a11.605,11.605,0,0,1,3.153.384,6.161,6.161,0,0,1,4.376,4.6,19.272,19.272,0,0,1,.583,5.273c.006,3.747-.011,7.5,0,11.243,0,.351-.1.443-.443.44q-2.9-.024-5.792,0c-.34,0-.413-.1-.412-.423q.016-5.349,0-10.7a9.613,9.613,0,0,0-.311-2.656,2.986,2.986,0,0,0-3.284-2.327c-2.289.121-3.48,1.254-3.772,3.583a13.367,13.367,0,0,0-.1,1.672c0,3.468,0,6.936.009,10.4,0,.346-.086.448-.438.445q-2.917-.026-5.834,0c-.312,0-.4-.082-.4-.4q.013-10.3,0-20.6c0-.34.111-.418.432-.416q2.77.02,5.54,0c.34,0,.428.107.42.429-.019.82-.006,1.641-.006,2.462Z" transform="translate(-45.463 -39.664)"/><path class="b" d="M36.482,61.834c0,3.4-.006,6.793.008,10.19,0,.377-.092.492-.483.488-1.93-.021-3.86-.016-5.79,0-.309,0-.4-.075-.4-.4q.014-10.316,0-20.632c0-.285.069-.386.371-.384,1.958.012,3.916.016,5.873,0,.376,0,.427.142.426.465q-.014,5.137-.006,10.274Z" transform="translate(-29.304 -40.448)"/><path class="b" d="M36.254,28.437A3.855,3.855,0,1,1,32.405,24.6a3.868,3.868,0,0,1,3.849,3.835Z" transform="translate(-28.544 -24.602)"/></g></svg>