<?xml version="1.0" encoding="UTF-8"?>
<svg width="700pt" height="700pt" version="1.1" viewBox="0 0 700 700" xmlns="http://www.w3.org/2000/svg">
 <g fill-rule="evenodd">
  <path d="m560 367.5c22.539 0 40.832-18.246 40.832-40.832v-256.67c0-22.539-18.293-40.832-40.832-40.832h-420c-22.539 0-40.832 18.293-40.832 40.832v256.67c0 22.586 18.293 40.832 40.832 40.832h420zm0-35h-420c-3.2188 0-5.832-2.6133-5.832-5.832v-256.67c0-3.2188 2.6133-5.832 5.832-5.832h420c3.2188 0 5.832 2.6133 5.832 5.832v256.67c0 3.2188-2.6133 5.832-5.832 5.832z"/>
  <path d="m385.44 437.5c23.355 0 43.215-5.0625 55.465-11.922 11.969-6.6953 18.082-15.844 19.555-24.336 1.2852-7.4648-0.28125-15.398-6.625-23.102 0 0-32.48-39.293-32.48-39.293-3.3359-4.0117-8.2852-6.3477-13.488-6.3477h-115.71c-5.2266 0-10.172 2.332-13.488 6.3477l-32.48 39.293c-9.5898 11.598-9.2852 23.332-2.2617 34.043 4.0352 6.1602 11.551 12.391 22.445 16.918 12.039 5.0156 28.91 8.3984 48.207 8.3984zm37.285-42.047c-1.1914 0.65234-2.4727 1.3281-3.6406 1.7734-8.6094 3.3359-20.371 5.2734-33.648 5.2734h-70.863c-13.301 0-25.059-1.9375-33.672-5.2734-1.1445-0.44141-2.4492-1.1211-3.6172-1.7734l23.102-27.953h99.238z"/>
  <path d="m560 530.83c6.0664 0 11.691-3.1484 14.887-8.3086 3.1953-5.1562 3.4766-11.598 0.76953-17.012l-23.332-46.668c-2.9648-5.9258-9.0312-9.6836-15.656-9.6836h-373.33c-6.625 0-12.691 3.7578-15.656 9.6836l-23.332 46.668c-2.707 5.4141-2.4258 11.852 0.76953 17.012 3.1953 5.1562 8.8203 8.3086 14.887 8.3086h420zm-28.328-35h-363.35l5.832-11.668h351.68l5.832 11.668z"/>
  <path d="m479.04 104.28c-6.8125-6.8359-17.898-6.8359-24.734 0l-44.684 44.66c-6.8359 6.8125-6.8359 17.898 0 24.734l44.684 44.707c6.8125 6.8359 17.898 6.8359 24.734 0l44.684-44.637c6.8359-6.8359 6.8359-17.922 0-24.758zm-12.367 37.125 19.926 19.949-19.926 19.902s-19.926-19.949-19.926-19.949z"/>
  <path d="m169.17 175c0 28.98 23.52 52.5 52.5 52.5s52.5-23.52 52.5-52.5-23.52-52.5-52.5-52.5-52.5 23.52-52.5 52.5zm35 0c0-9.6602 7.8398-17.5 17.5-17.5 9.6602 0 17.5 7.8398 17.5 17.5s-7.8398 17.5-17.5 17.5c-9.6602 0-17.5-7.8398-17.5-17.5z"/>
  <path d="m413.84 251.09c5.4141-3.125 8.75-8.9141 8.75-15.168s-3.3359-12.016-8.75-15.145l-78.422-45.266c-5.4141-3.125-12.086-3.125-17.5 0-5.4141 3.125-8.75 8.8906-8.75 15.145v90.535c0 6.2539 3.3359 12.039 8.75 15.168 5.4141 3.125 12.086 3.125 17.5 0l78.422-45.266zm-43.75-15.168-25.922 14.957v-29.914z"/>
 </g>
</svg>
