<svg xmlns="http://www.w3.org/2000/svg" width="85.149" height="75.139" viewBox="0 0 85.149 75.139"><defs><style>.a{fill:#4fc1f3;}</style></defs><path class="a" d="M88.74,98.672h72.87a1.68,1.68,0,0,0,1.682-1.682V50.172a1.68,1.68,0,0,0-1.682-1.682H88.742a1.683,1.683,0,0,0-1.68,1.682V96.99a1.692,1.692,0,0,0,1.68,1.682Zm36.437-34.055a8.965,8.965,0,1,1-8.966,8.966,8.974,8.974,0,0,1,8.966-8.966Zm0,4.46a4.506,4.506,0,1,0,4.5,4.507,4.5,4.5,0,0,0-4.5-4.507Zm5.741-12.5a17.89,17.89,0,0,1,6.118,3.539l2.525-1.458a2.222,2.222,0,0,1,3.031.819l3.512,6.083a2.216,2.216,0,0,1-.813,3.025l-2.517,1.46a18.346,18.346,0,0,1,0,7.072l2.52,1.455a2.225,2.225,0,0,1,.81,3.039l-3.512,6.075a2.221,2.221,0,0,1-3.031.819l-2.531-1.455a17.943,17.943,0,0,1-6.112,3.533V93.5a2.229,2.229,0,0,1-2.229,2.228h-7.024a2.229,2.229,0,0,1-2.229-2.228V90.585a17.946,17.946,0,0,1-6.115-3.537L110.8,88.5a2.226,2.226,0,0,1-3.039-.81l-3.512-6.083a2.226,2.226,0,0,1,.81-3.039l2.523-1.455a18.285,18.285,0,0,1,0-7.072l-2.52-1.455a2.225,2.225,0,0,1-.81-3.039l3.512-6.083a2.225,2.225,0,0,1,3.039-.81l2.52,1.455a17.969,17.969,0,0,1,6.115-3.533V53.665a2.229,2.229,0,0,1,2.228-2.229h7.024a2.229,2.229,0,0,1,2.229,2.229v2.913Zm-2.56,3.884a2.227,2.227,0,0,1-1.9-2.2V55.9H123.9v2.359a2.24,2.24,0,0,1-1.742,2.169,13.456,13.456,0,0,0-6.862,3.969,2.223,2.223,0,0,1-2.742.409L110.5,63.623l-1.289,2.231,2.049,1.185a2.232,2.232,0,0,1,1.011,2.576,13.767,13.767,0,0,0-.035,7.827,2.221,2.221,0,0,1-.974,2.688l-2.052,1.185,1.287,2.233,1.993-1.15a2.223,2.223,0,0,1,2.8.374A13.523,13.523,0,0,0,122,86.71a2.229,2.229,0,0,1,1.9,2.2v2.359h2.566V88.914a2.24,2.24,0,0,1,1.742-2.169,13.458,13.458,0,0,0,6.862-3.972,2.223,2.223,0,0,1,2.742-.409l2.054,1.188,1.287-2.231-2.054-1.185a2.233,2.233,0,0,1-1.011-2.568,13.778,13.778,0,0,0,.019-7.883,2.221,2.221,0,0,1,.99-2.64l2.054-1.185-1.292-2.233-1.923,1.11a2.227,2.227,0,0,1-2.87-.329,13.487,13.487,0,0,0-6.7-3.932ZM113.191,107.9h3.165v-4.772H88.738A6.157,6.157,0,0,1,82.6,96.99V50.172a6.164,6.164,0,0,1,6.139-6.142h72.869a6.159,6.159,0,0,1,6.142,6.142V96.99a6.161,6.161,0,0,1-6.142,6.142H133.992V107.9h3.165a2.229,2.229,0,0,1,2.228,2.229v6.808a2.229,2.229,0,0,1-2.228,2.228H113.186a2.229,2.229,0,0,1-2.229-2.228v-6.808a2.229,2.229,0,0,1,2.229-2.229Zm21.742,4.46H115.421v2.349h19.511Zm-14.119-9.231V107.9h8.723v-4.772Z" transform="translate(-82.599 -44.03)"/></svg>