<svg xmlns="http://www.w3.org/2000/svg" width="84.295" height="74.705" viewBox="0 0 84.295 74.705"><defs><style>.a{fill:#4fc1f3;}</style></defs><g transform="translate(-360)"><path class="a" d="M105.384,93.65l7.683-4.435,18.69-16.943a2.224,2.224,0,0,1,3.413.54l3.486,6.037,3.579-2.065a2.216,2.216,0,0,1,3.025.813l5.118,8.851a2.226,2.226,0,0,1-.81,3.039l-3.579,2.065,3.426,5.936a2.222,2.222,0,0,1-1.182,3.327l-21.619,6.944,5.205,9.015A2.224,2.224,0,1,1,127.968,119l-5.476-9.483-6.075,3.512a2.226,2.226,0,0,1-3.039-.81l-8.929-15.466a2.219,2.219,0,0,1,.931-3.1Zm46.208-34.9a2.228,2.228,0,1,1,0-4.457h3.833a2.228,2.228,0,0,1,0,4.457Zm-12.089,0a2.228,2.228,0,1,1,0-4.457h3.833a2.228,2.228,0,1,1,0,4.457Zm-12.089,0a2.228,2.228,0,0,1,0-4.457h3.833a2.228,2.228,0,0,1,0,4.457Zm8.972,52.849a2.228,2.228,0,0,1,0-4.457H165.1V67.634H89.725v39.51h15.651a2.228,2.228,0,1,1,0,4.457H87.493a2.229,2.229,0,0,1-2.228-2.228V47.637a2.229,2.229,0,0,1,2.228-2.228h79.838a2.229,2.229,0,0,1,2.228,2.228v61.736a2.229,2.229,0,0,1-2.228,2.228H136.385ZM165.1,49.868H89.725V63.176H165.1ZM140.875,82.691l2.891,5.007,1.651-.955-2.892-5.007-1.651.952ZM132.7,77.408,117.2,91.459l7.137,12.361,19.917-6.4L132.7,77.41ZM113.572,94.05l-4.16,2.4,6.709,11.62,4.157-2.4-6.706-11.618Z" transform="translate(274.735 -45.408)"/></g></svg>