<svg xmlns="http://www.w3.org/2000/svg" width="68.706" height="85.202" viewBox="0 0 68.706 85.202"><defs><style>.a{fill:#4fc1f3;}</style></defs><path class="a" d="M168.592,12.465a34.357,34.357,0,0,1,34.356,34.356c0,15.542-6.671,20.939-12.283,25.482-3.357,2.715-6.257,5.063-6.257,9.552a15.813,15.813,0,0,1-31.626,0c0-4.489-2.9-6.835-6.257-9.55-5.612-4.542-12.283-9.94-12.283-25.482A34.358,34.358,0,0,1,168.59,12.467Zm-11.5,67.159H180.1c.736-5.1,4.023-7.763,7.76-10.788,4.855-3.93,10.628-8.6,10.628-22.016a29.893,29.893,0,1,0-59.787,0c0,13.418,5.772,18.088,10.628,22.017,3.734,3.023,7.024,5.684,7.76,10.785Zm22.638,4.46H157.466a11.359,11.359,0,0,0,22.264,0Zm-11.131-59a2.228,2.228,0,1,1,0-4.457,26.215,26.215,0,0,1,26.2,26.2,2.228,2.228,0,1,1-4.457,0A21.725,21.725,0,0,0,168.6,25.086Z" transform="translate(-134.241 -12.465)"/></svg>