<svg xmlns="http://www.w3.org/2000/svg" width="54" height="54" viewBox="0 0 54 54"><defs><style>.a{fill:#4fc1f3;}.b{fill:#fff;}</style></defs><g transform="translate(-0.016)"><g transform="translate(0)"><circle class="a" cx="27" cy="27" r="27" transform="translate(0.016)"/><path class="b" d="M37.43,63.911c13.25,0,20.5-10.977,20.5-20.5q0-.468-.02-.931a14.66,14.66,0,0,0,3.594-3.73,14.383,14.383,0,0,1-4.137,1.134A7.227,7.227,0,0,0,60.53,35.9a14.446,14.446,0,0,1-4.574,1.749,7.21,7.21,0,0,0-12.276,6.57A20.451,20.451,0,0,1,28.832,36.7a7.209,7.209,0,0,0,2.23,9.616,7.148,7.148,0,0,1-3.263-.9c0,.03,0,.06,0,.092a7.207,7.207,0,0,0,5.779,7.062,7.2,7.2,0,0,1-3.253.123,7.212,7.212,0,0,0,6.73,5,14.454,14.454,0,0,1-8.947,3.083,14.711,14.711,0,0,1-1.719-.1A20.393,20.393,0,0,0,37.43,63.911" transform="translate(-15.782 -21.158)"/></g></g></svg>