<svg xmlns="http://www.w3.org/2000/svg" width="55" height="54" viewBox="0 0 55 54"><defs><style>.a{fill:#4fc1f3;}.b{fill:#fff;fill-rule:evenodd;}</style></defs><g transform="translate(0.476)"><ellipse class="a" cx="27.5" cy="27" rx="27.5" ry="27" transform="translate(-0.476)"/><g transform="translate(10.651 9.367)"><path class="b" d="M56.028,28.353A17.211,17.211,0,0,0,28.942,49.111L26.5,58.026l9.123-2.393a17.2,17.2,0,0,0,8.224,2.094h.007A17.211,17.211,0,0,0,56.029,28.352ZM43.854,54.823h-.006a14.282,14.282,0,0,1-7.28-1.993l-.522-.31-5.414,1.42,1.445-5.277-.34-.541a14.305,14.305,0,1,1,12.118,6.7ZM51.7,44.113c-.43-.215-2.544-1.255-2.938-1.4s-.681-.215-.967.215-1.111,1.4-1.362,1.686-.5.323-.932.108a11.744,11.744,0,0,1-3.458-2.134,12.959,12.959,0,0,1-2.392-2.978c-.251-.43-.027-.663.188-.877.193-.193.43-.5.645-.753a2.944,2.944,0,0,0,.43-.717.792.792,0,0,0-.036-.753c-.107-.215-.967-2.331-1.326-3.192-.349-.838-.7-.725-.967-.738s-.537-.015-.824-.015a1.58,1.58,0,0,0-1.147.538,4.82,4.82,0,0,0-1.505,3.586,8.361,8.361,0,0,0,1.756,4.447c.215.287,3.032,4.629,7.346,6.491a24.773,24.773,0,0,0,2.451.905,5.9,5.9,0,0,0,2.708.17,4.429,4.429,0,0,0,2.9-2.044,3.6,3.6,0,0,0,.251-2.044c-.107-.179-.394-.287-.824-.5Z" transform="translate(-26.5 -23.307)"/></g></g></svg>